<svg width="150" height="65" viewBox="0 0 150 65" fill="none" xmlns="http://www.w3.org/2000/svg">
<g clip-path="url(#clip0_1316_2451)">
<path d="M39.9038 0.579799C38.6849 2.00951 37.2188 5.71679 36.5434 9.12482C35.9504 12.0508 35.8515 13.5636 35.8843 19.1328C35.9174 24.8184 35.8349 25.8325 35.1761 27.628C34.5007 29.4402 32.6063 31.8172 30.8767 32.9978C27.5327 35.2919 23.3796 37.338 17.7294 37.3548L15.1997 37.3189L15.4416 37.5361C15.9358 38.1847 16.6112 39.2153 16.9242 39.8305L17.4184 40.8078C17.4184 40.8078 29.4482 35.4068 29.86 35.1573C29.86 35.1573 36.4609 30.1549 37.7787 26.2481C38.5696 23.9373 38.8659 20.0139 38.4213 18.0024L38.3224 17.5867L38.5693 18.019C39.0143 18.8003 39.6402 21.2774 39.8213 23.0562C40.1343 25.9655 39.6402 28.8748 38.3883 31.385C37.021 34.1116 35.2256 36.1232 30.0035 40.7282C27.022 43.3547 26.0007 44.4686 24.4852 46.7461C21.9648 50.5033 20.5152 54.9256 20.2682 59.5637C20.1858 61.1764 20.2022 61.2762 20.4493 60.9769C20.5811 60.7941 20.7129 60.578 20.7129 60.4948C20.7129 60.4115 21.2071 59.5805 21.8166 58.6659C24.0075 55.3244 27.1373 52.7809 30.9097 51.2514C32.5239 50.6031 33.0015 50.4534 37.1857 49.2732C41.0733 48.1593 41.3369 48.0761 42.6219 47.4777C45.1422 46.3139 47.366 44.4355 48.8157 42.2409C50.2651 40.0466 50.8417 38.0515 50.8747 35.1756L50.8911 33.5463L51.1219 34.2944C51.7479 36.2729 51.6654 39.7971 50.9241 42.374C50.2157 44.901 48.5521 47.2282 46.1965 49.0237C43.5936 50.9854 42.0123 51.5841 36.0326 52.8476C32.6722 53.5458 30.4318 54.2938 28.3894 55.3743C26.0666 56.6213 23.7439 58.7825 22.2284 61.1265C21.5201 62.2238 20.3011 64.8503 20.4329 65C20.4329 65 23.2168 61.5921 24.3369 60.6943C25.803 59.4973 29.1306 58.0841 31.5849 57.5855C32.7874 57.3528 35.3078 57.1034 37.8448 56.9871C45.3069 56.6045 49.5405 54.6428 52.5549 50.1709C54.0705 47.9267 54.7953 45.4994 54.9106 42.108C55.0258 39.4647 54.7787 37.4366 54.1363 35.4581C53.7411 34.2445 52.2256 31.0193 51.1547 29.1408C49.9521 27.0295 49.4911 25.8491 49.4086 24.6189C49.3097 23.1227 49.5897 22.1751 50.3476 21.4436C51.0888 20.7288 51.6984 20.5127 53.5597 20.3132C56.0801 20.0472 56.7061 19.4819 57.958 16.3066L58.6168 14.6109L58.3041 14.1953C58.1391 13.9626 57.464 13.4472 56.8213 13.0482C56.0637 12.5827 55.273 11.9011 54.614 11.1364C52.8185 9.07495 52.0772 8.40996 51.0063 7.89461C49.4911 7.16313 48.2061 6.8639 46.2459 6.74753C44.9775 6.68102 44.3843 6.58126 44.0055 6.34852C43.3301 5.93292 42.2758 4.78581 41.7487 3.85483C41.2874 3.05687 40.8097 1.37778 40.8097 0.579799C40.8097 -0.201557 40.5626 -0.184931 39.9038 0.579799ZM47.5473 30.4708C47.5473 31.1524 47.4154 32.3991 47.2507 33.2469C46.6905 35.957 45.6035 37.9352 43.6761 39.7806C41.584 41.7588 40.1837 42.5069 35.3739 44.186C31.2555 45.6323 28.8176 46.979 26.6596 49.0072C25.4736 50.121 25.4736 50.1045 26.8408 48.0595C28.1092 46.1811 28.8176 45.3997 30.4648 43.9865C32.5405 42.2244 34.1052 41.2268 37.4823 39.4981C41.0239 37.6858 42.2428 36.8547 43.8572 35.1921C45.5705 33.4134 46.6578 31.4184 47.1024 29.2241C47.2837 28.3096 47.3165 28.2763 47.4154 28.7252C47.4812 28.9912 47.5306 29.7891 47.5473 30.4708Z" fill="#FC896D"/>
<path d="M37.1397 26.4082C36.397 27.4168 34.5546 29.1094 33.1269 30.1015C30.4131 31.9609 27.7686 33.0479 22.4002 34.5218C16.034 36.2429 13.9064 37.2253 10.7173 39.9259C6.80571 43.219 4.34861 47.9443 4.42023 51.9903C4.46627 54.0728 4.53895 54.1481 5.10446 52.6166C6.37958 49.2434 8.20963 46.7994 11.4274 44.1586C12.9394 42.9225 17.5437 40.7319 20.8365 39.6611C24.9281 38.3483 26.4686 37.7444 28.6798 36.5548C32.9168 34.2846 35.3515 31.8043 37.0295 28.0499C37.6063 26.7714 37.9165 25.6231 37.6566 25.7683C37.5897 25.8194 37.3575 26.0989 37.1397 26.4082Z" fill="#FC896D"/>
<path d="M11.4746 49.0217C8.97856 49.4721 7.09732 51.2186 6.42743 53.6912C6.15212 54.7021 6.15212 56.3385 6.42743 57.322C7.12486 59.8128 9.12537 61.7064 11.4288 62.0742C12.3831 62.2304 13.8331 62.1477 14.659 61.8903C16.3475 61.3663 17.8249 60.0612 18.66 58.3606C19.1556 57.3403 19.3299 56.4947 19.2749 55.2814C19.1923 53.5441 18.5407 52.1192 17.2376 50.8049C16.4393 50.0053 15.4757 49.4445 14.4295 49.1503C13.8239 48.9849 12.0803 48.9114 11.4746 49.0217ZM13.2457 51.5034C14.4662 51.7332 15.4665 52.4961 16.0079 53.5991C16.3016 54.1875 16.3108 54.261 16.3108 55.2723C16.3108 56.2741 16.2924 56.3658 16.0171 56.9543C14.8242 59.4636 11.7224 60.0979 9.73105 58.232C8.62983 57.2023 8.20771 55.6583 8.63901 54.2702C8.97856 53.1672 9.66681 52.3675 10.713 51.8712C11.5847 51.4575 12.3831 51.338 13.2457 51.5034Z" fill="#FC896D"/>
<path d="M71.5051 27.0857V31.2275H76.6034V35.0225H71.5051V49.4731H67.7447V35.0225H65.5933V31.2275H67.7447V27.0857C67.7447 26.0883 67.9856 25.1821 68.4678 24.3671C68.9498 23.54 69.5947 22.8831 70.4023 22.3966C71.2218 21.91 72.1317 21.6667 73.1322 21.6667C73.8554 21.6667 74.5605 21.8127 75.2475 22.1046C75.9345 22.3966 76.5492 22.8466 77.0916 23.4548L74.3978 26.1369C74.265 25.918 74.0783 25.7538 73.8373 25.6443C73.6082 25.5226 73.3732 25.4618 73.1322 25.4618C72.6862 25.4618 72.3006 25.62 71.9752 25.9362C71.6616 26.2525 71.5051 26.6356 71.5051 27.0857ZM79.9238 49.4731V31.2275H83.6842V33.1615C84.3108 32.4074 85.0822 31.8113 85.9983 31.3734C86.9142 30.9355 87.9026 30.7166 88.9633 30.7166C89.6382 30.7166 90.3071 30.8078 90.9701 30.9903L89.4695 34.8218C88.9995 34.6394 88.5294 34.5482 88.0594 34.5482C87.2639 34.5482 86.5345 34.7489 85.8718 35.1503C85.2088 35.5394 84.6786 36.0685 84.2808 36.7376C83.8831 37.4067 83.6842 38.1485 83.6842 38.9636V49.4731H79.9238ZM100.167 49.9474C98.5034 49.9474 96.9848 49.5155 95.6108 48.652C94.2486 47.7885 93.1579 46.6327 92.3385 45.1853C91.5308 43.7257 91.1272 42.1141 91.1272 40.3503C91.1272 39.0123 91.3622 37.7654 91.8322 36.6099C92.3023 35.4422 92.9469 34.4204 93.7667 33.5446C94.5983 32.6566 95.5625 31.9633 96.6594 31.4646C97.756 30.966 98.9252 30.7166 100.167 30.7166C101.553 30.7166 102.824 31.0085 103.981 31.5924C105.138 32.164 106.127 32.9608 106.946 33.9825C107.766 34.992 108.368 36.1598 108.754 37.4857C109.14 38.7994 109.254 40.1983 109.098 41.6822H95.1588C95.3153 42.5215 95.6167 43.2818 96.0628 43.9629C96.5207 44.632 97.0992 45.1611 97.7983 45.5503C98.5094 45.9394 99.2989 46.1401 100.167 46.1524C101.083 46.1524 101.914 45.9212 102.662 45.459C103.421 44.9969 104.042 44.3583 104.524 43.5432L108.338 44.4373C107.615 46.0551 106.524 47.3808 105.066 48.4148C103.608 49.4366 101.975 49.9474 100.167 49.9474ZM95.0322 38.7811H105.301C105.181 37.9053 104.873 37.1148 104.379 36.4092C103.897 35.6916 103.288 35.126 102.553 34.7124C101.83 34.2867 101.035 34.0738 100.167 34.0738C99.3108 34.0738 98.5153 34.2805 97.7803 34.6941C97.0571 35.1078 96.4543 35.6734 95.9724 36.391C95.5023 37.0966 95.1887 37.8931 95.0322 38.7811ZM123.381 31.2275H127.395L117.488 58.5959H113.492L116.764 49.4731L110.274 31.2275H114.378L118.645 44.2731L123.381 31.2275ZM143.53 31.2275H147.291V49.4731H143.512L143.368 46.8274C142.837 47.764 142.12 48.5183 141.216 49.0899C140.312 49.6615 139.246 49.9474 138.016 49.9474C136.69 49.9474 135.443 49.698 134.274 49.1994C133.105 48.6885 132.074 47.9829 131.182 47.0829C130.302 46.1829 129.615 45.1489 129.121 43.9811C128.627 42.8012 128.38 41.5362 128.38 40.186C128.38 38.8846 128.621 37.6622 129.103 36.5187C129.585 35.3632 130.254 34.3534 131.11 33.4899C131.966 32.6264 132.954 31.9513 134.075 31.4646C135.208 30.966 136.419 30.7166 137.709 30.7166C139.022 30.7166 140.179 31.0208 141.18 31.6289C142.192 32.225 143.03 32.9913 143.693 33.9278L143.53 31.2275ZM137.926 46.2801C138.986 46.2801 139.914 46.0187 140.71 45.4955C141.505 44.9604 142.12 44.2426 142.554 43.3425C143 42.4425 143.223 41.445 143.223 40.3503C143.223 39.2433 143 38.2398 142.554 37.3397C142.108 36.4397 141.487 35.7281 140.692 35.205C139.908 34.6699 138.986 34.4022 137.926 34.4022C136.877 34.4022 135.919 34.6699 135.051 35.205C134.183 35.7401 133.496 36.458 132.99 37.358C132.484 38.258 132.231 39.2555 132.231 40.3503C132.231 41.4573 132.49 42.4608 133.008 43.3608C133.538 44.2488 134.231 44.9604 135.087 45.4955C135.955 46.0187 136.901 46.2801 137.926 46.2801Z" fill="#FC896D"/>
</g>
<defs>
<clipPath id="clip0_1316_2451">
<rect width="150" height="65" fill="white"/>
</clipPath>
</defs>
</svg>
