<svg width="17" height="16" viewBox="0 0 17 16" fill="none" xmlns="http://www.w3.org/2000/svg">
<path d="M14.8976 8.19123C14.8725 8.25175 14.8358 8.30677 14.7896 8.35323L10.1229 13.0199C10.0282 13.1082 9.9028 13.1563 9.77326 13.154C9.64373 13.1517 9.52014 13.0993 9.42853 13.0076C9.33692 12.916 9.28445 12.7924 9.28216 12.6629C9.27988 12.5334 9.32796 12.408 9.41628 12.3132L13.2289 8.4999H2.43628C2.30367 8.4999 2.17649 8.44722 2.08273 8.35345C1.98896 8.25968 1.93628 8.13251 1.93628 7.9999C1.93628 7.86729 1.98896 7.74011 2.08273 7.64634C2.17649 7.55258 2.30367 7.4999 2.43628 7.4999H13.2289L9.41628 3.68656C9.32796 3.59178 9.27988 3.46642 9.28216 3.33688C9.28445 3.20735 9.33692 3.08376 9.42853 2.99215C9.52014 2.90054 9.64373 2.84807 9.77326 2.84578C9.9028 2.8435 10.0282 2.89158 10.1229 2.9799L14.7896 7.64656C14.8594 7.71656 14.9068 7.80563 14.926 7.90255C14.9453 7.99948 14.9354 8.09992 14.8976 8.19123Z" fill="black"/>
</svg>
