<svg width="21" height="20" viewBox="0 0 21 20" fill="none" xmlns="http://www.w3.org/2000/svg">
<path fill-rule="evenodd" clip-rule="evenodd" d="M14.1638 4.36065V3.11131C14.1638 2.07648 13.3234 1.23608 12.2886 1.23608H3.54075C2.50592 1.23608 1.66553 2.07648 1.66553 3.11131V11.8591C1.66553 12.894 2.50592 13.7344 3.54075 13.7344H4.79009C5.13476 13.7344 5.41518 13.454 5.41518 13.1093C5.41518 12.7646 5.13476 12.4842 4.79009 12.4842H3.54075C3.19527 12.4842 2.91568 12.2046 2.91568 11.8591V3.11131C2.91568 2.76583 3.19527 2.48623 3.54075 2.48623H12.2886C12.6341 2.48623 12.9137 2.76583 12.9137 3.11131V4.36065C12.9137 4.70533 13.1941 4.98573 13.5387 4.98573C13.8834 4.98573 14.1638 4.70533 14.1638 4.36065Z" fill="black"/>
<path fill-rule="evenodd" clip-rule="evenodd" d="M19.1638 8.11131C19.1638 7.07648 18.3234 6.23608 17.2886 6.23608H8.54075C7.50592 6.23608 6.66553 7.07648 6.66553 8.11131V16.8591C6.66553 17.894 7.50592 18.7344 8.54075 18.7344H17.2886C18.3234 18.7344 19.1638 17.894 19.1638 16.8591V8.11131ZM17.9137 8.11131V16.8591C17.9137 17.2046 17.6341 17.4842 17.2886 17.4842H8.54075C8.19527 17.4842 7.91568 17.2046 7.91568 16.8591V8.11131C7.91568 7.76583 8.19527 7.48623 8.54075 7.48623H17.2886C17.6341 7.48623 17.9137 7.76583 17.9137 8.11131Z" fill="black"/>
<path fill-rule="evenodd" clip-rule="evenodd" d="M12.3113 9.36834V15.6177C12.3113 15.9626 12.5913 16.2427 12.9363 16.2427C13.2813 16.2427 13.5613 15.9626 13.5613 15.6177V9.36834C13.5613 9.02349 13.2813 8.74341 12.9363 8.74341C12.5913 8.74341 12.3113 9.02349 12.3113 9.36834Z" fill="black"/>
<path fill-rule="evenodd" clip-rule="evenodd" d="M9.80462 13.125H16.054C16.3989 13.125 16.6789 12.845 16.6789 12.5C16.6789 12.155 16.3989 11.875 16.054 11.875H9.80462C9.45977 11.875 9.17969 12.155 9.17969 12.5C9.17969 12.845 9.45977 13.125 9.80462 13.125Z" fill="black"/>
</svg>
