<svg width="25" height="24" viewBox="0 0 25 24" fill="none" xmlns="http://www.w3.org/2000/svg">
<path d="M21.7475 2.68876C21.5589 2.50025 21.3235 2.36544 21.0654 2.29821C20.8073 2.23098 20.536 2.23376 20.2794 2.30626H20.2653L2.27097 7.76625C1.97806 7.85049 1.71775 8.02196 1.52472 8.25784C1.33169 8.49371 1.21509 8.78278 1.19046 9.08658C1.16582 9.39037 1.23431 9.69445 1.38681 9.95835C1.53931 10.2222 1.76858 10.4334 2.0441 10.5638L10.071 14.3653L13.8725 22.3922C13.9926 22.6492 14.1836 22.8666 14.4232 23.0186C14.6627 23.1706 14.9407 23.2509 15.2244 23.25C15.2675 23.25 15.3107 23.2481 15.3538 23.2444C15.6565 23.2199 15.9445 23.1034 16.1791 22.9105C16.4137 22.7176 16.5837 22.4576 16.6663 22.1653L22.1225 4.17094C22.1225 4.16626 22.1225 4.16157 22.1225 4.15688C22.196 3.90091 22.1999 3.63 22.134 3.37199C22.0681 3.11397 21.9347 2.87815 21.7475 2.68876ZM15.2328 21.7359L15.2282 21.7491L11.5382 13.9594L15.9669 9.52969C16.1016 9.3879 16.1756 9.19908 16.1731 9.00351C16.1706 8.80794 16.0918 8.62108 15.9535 8.48278C15.8152 8.34448 15.6284 8.26568 15.4328 8.26317C15.2372 8.26067 15.0484 8.33466 14.9066 8.46938L10.4769 12.8981L2.68629 9.20813H2.69941L20.6863 3.75001L15.2328 21.7359Z" fill="black"/>
</svg>
