<svg width="25" height="24" viewBox="0 0 25 24" fill="none" xmlns="http://www.w3.org/2000/svg">
<g clip-path="url(#clip0_1958_7239)">
<path d="M12.4363 0C5.81945 0 0.436279 5.38317 0.436279 12C0.436279 18.6168 5.81945 24 12.4363 24C19.0531 24 24.4363 18.6168 24.4363 12C24.4363 5.38317 19.0531 0 12.4363 0ZM12.4363 22.5C6.64656 22.5 1.93628 17.7897 1.93628 12C1.93628 6.21028 6.64656 1.5 12.4363 1.5C18.226 1.5 22.9363 6.21028 22.9363 12C22.9363 17.7897 18.226 22.5 12.4363 22.5ZM18.7577 15.6562C17.4464 17.9271 15.0834 19.2829 12.4365 19.2829C9.78948 19.283 7.42628 17.9272 6.11495 15.6562C5.90781 15.2976 6.03067 14.8388 6.38936 14.6318C6.74814 14.4246 7.20681 14.5475 7.41386 14.9062C8.45406 16.7075 10.3317 17.783 12.4364 17.7829C14.5411 17.7829 16.4185 16.7075 17.4587 14.9062C17.6657 14.5474 18.1245 14.4246 18.4832 14.6317C18.8419 14.8388 18.9647 15.2975 18.7577 15.6562ZM5.99931 9.0442C5.99931 8.21677 6.67248 7.54355 7.49997 7.54355C8.32745 7.54355 9.00062 8.21672 9.00062 9.0442C9.00062 9.87169 8.32745 10.5449 7.49997 10.5449C6.67248 10.5449 5.99931 9.87169 5.99931 9.0442ZM18.8733 9.0442C18.8733 9.87164 18.2001 10.5449 17.3726 10.5449C16.5452 10.5449 15.872 9.87169 15.872 9.0442C15.872 8.21672 16.5452 7.54355 17.3726 7.54355C18.2001 7.54359 18.8733 8.21677 18.8733 9.0442Z" fill="#8D8D8D"/>
</g>
<defs>
<clipPath id="clip0_1958_7239">
<rect width="24" height="24" fill="white" transform="translate(0.436279)"/>
</clipPath>
</defs>
</svg>
