<svg width="17" height="16" viewBox="0 0 17 16" fill="none" xmlns="http://www.w3.org/2000/svg">
<g clip-path="url(#clip0_1958_7271)">
<path d="M16.269 5.88174L12.2689 1.88166C12.0457 1.65853 11.6839 1.6586 11.4608 1.88179C11.3537 1.98894 11.2935 2.13419 11.2935 2.2857V4.00001H7.29341C6.9778 4.00001 6.72196 4.25585 6.72196 4.57146C6.72196 4.88707 6.9778 5.14291 7.29341 5.14291H11.8649C12.1805 5.14291 12.4364 4.88707 12.4364 4.57146V3.66511L15.057 6.28574L12.4364 8.90636V8.00005C12.4364 7.68444 12.1805 7.4286 11.8649 7.4286H5.57909V5.71429C5.57903 5.39868 5.32312 5.14291 5.00754 5.14297C4.85607 5.14301 4.71079 5.20318 4.60364 5.31029L0.603601 9.31036C0.380506 9.53352 0.380506 9.89524 0.603601 10.1184L4.60368 14.1184C4.71082 14.2256 4.85613 14.2859 5.00768 14.2859C5.08278 14.2861 5.15721 14.2714 5.22652 14.2425C5.44001 14.1539 5.57916 13.9456 5.57909 13.7144V12.0001H9.57917C9.89478 12.0001 10.1506 11.7443 10.1506 11.4287C10.1506 11.1131 9.89478 10.8572 9.57917 10.8572H5.00768C4.69207 10.8572 4.43623 11.1131 4.43623 11.4287V12.335L1.81561 9.71436L4.43623 7.09374V8.00005C4.43623 8.31566 4.69207 8.5715 5.00768 8.5715H11.2935V10.2858C11.2935 10.6014 11.5495 10.8572 11.865 10.8571C12.0165 10.8571 12.1618 10.7969 12.2689 10.6898L16.269 6.68974C16.4921 6.46658 16.4921 6.10486 16.269 5.88174Z" fill="black"/>
</g>
<defs>
<clipPath id="clip0_1958_7271">
<rect width="16" height="16" fill="white" transform="translate(0.436279)"/>
</clipPath>
</defs>
</svg>
