<svg width="17" height="16" viewBox="0 0 17 16" fill="none" xmlns="http://www.w3.org/2000/svg">
<path d="M1.97495 8.19123C2.00006 8.25175 2.03674 8.30677 2.08295 8.35323L6.74961 13.0199C6.8444 13.1082 6.96976 13.1563 7.09929 13.154C7.22883 13.1517 7.35242 13.0993 7.44403 13.0076C7.53564 12.916 7.58811 12.7924 7.5904 12.6629C7.59268 12.5334 7.5446 12.408 7.45628 12.3132L3.64361 8.4999H14.4363C14.5689 8.4999 14.6961 8.44722 14.7898 8.35345C14.8836 8.25968 14.9363 8.13251 14.9363 7.9999C14.9363 7.86729 14.8836 7.74011 14.7898 7.64634C14.6961 7.55258 14.5689 7.4999 14.4363 7.4999H3.64361L7.45628 3.68656C7.5446 3.59178 7.59268 3.46642 7.5904 3.33688C7.58811 3.20735 7.53564 3.08376 7.44403 2.99215C7.35242 2.90054 7.22883 2.84807 7.09929 2.84578C6.96976 2.8435 6.8444 2.89158 6.74961 2.9799L2.08295 7.64656C2.01321 7.71656 1.96574 7.80563 1.94652 7.90255C1.9273 7.99948 1.93719 8.09992 1.97495 8.19123Z" fill="black"/>
</svg>
