<svg width="25" height="32" viewBox="0 0 25 32" fill="none" xmlns="http://www.w3.org/2000/svg">
<path d="M16.3684 0.285439C15.8062 0.989299 15.1299 2.81442 14.8183 4.49222C14.5448 5.93268 14.4992 6.67745 14.5144 9.41923C14.5296 12.2183 14.4916 12.7175 14.1877 13.6015C13.8761 14.4936 13.0023 15.6639 12.2045 16.2451C10.662 17.3745 8.74629 18.3818 6.14003 18.39L4.97314 18.3724L5.08472 18.4793C5.31267 18.7986 5.62421 19.306 5.76859 19.6088L5.99655 20.09C5.99655 20.09 11.5455 17.431 11.7355 17.3082C11.7355 17.3082 14.7803 14.8455 15.3882 12.9222C15.753 11.7845 15.8897 9.853 15.6846 8.8627L15.639 8.65808L15.7529 8.87088C15.9581 9.25554 16.2469 10.475 16.3304 11.3508C16.4748 12.783 16.2469 14.2153 15.6694 15.4511C15.0387 16.7934 14.2105 17.7837 11.8017 20.0508C10.4264 21.3439 9.95533 21.8922 9.25627 23.0135C8.09371 24.8632 7.42505 27.0403 7.31107 29.3237C7.27308 30.1176 7.28067 30.1667 7.39465 30.0194C7.45545 29.9294 7.51623 29.823 7.51623 29.782C7.51623 29.7411 7.74418 29.3319 8.02533 28.8817C9.03591 27.2366 10.4796 25.9844 12.2197 25.2314C12.9643 24.9123 13.1846 24.8386 15.1147 24.2575C16.9079 23.7092 17.0295 23.6682 17.6222 23.3736C18.7848 22.8007 19.8105 21.8759 20.4792 20.7955C21.1478 19.7152 21.4137 18.7331 21.429 17.3172L21.4365 16.5151L21.543 16.8834C21.8318 17.8574 21.7937 19.5924 21.4518 20.8611C21.125 22.1051 20.3576 23.2508 19.271 24.1347C18.0704 25.1005 17.341 25.3952 14.5828 26.0173C13.0327 26.361 11.9993 26.7293 11.0572 27.2612C9.98573 27.8751 8.91434 28.9391 8.21528 30.0931C7.88855 30.6333 7.32627 31.9263 7.38705 32C7.38705 32 8.6712 30.3222 9.18788 29.8803C9.86414 29.2909 11.3991 28.5952 12.5311 28.3498C13.0858 28.2352 14.2484 28.1124 15.4187 28.0552C18.8607 27.8668 20.8136 26.9011 22.204 24.6995C22.9031 23.5947 23.2375 22.3997 23.2906 20.7301C23.3438 19.4288 23.2298 18.4303 22.9335 17.4563C22.7512 16.8588 22.0521 15.271 21.5581 14.3462C21.0034 13.3068 20.7908 12.7257 20.7527 12.1201C20.7071 11.3835 20.8362 10.917 21.1858 10.5569C21.5278 10.2049 21.8089 10.0985 22.6675 10.0003C23.8301 9.86938 24.1188 9.59111 24.6963 8.02788L25.0002 7.19307L24.8559 6.98847C24.7798 6.87389 24.4684 6.62016 24.172 6.42374C23.8225 6.19457 23.4578 5.85902 23.1538 5.48253C22.3256 4.46767 21.9837 4.14029 21.4897 3.88657C20.7908 3.52646 20.198 3.37915 19.2938 3.32186C18.7088 3.28911 18.4352 3.24001 18.2604 3.12542C17.9489 2.92082 17.4626 2.35609 17.2194 1.89776C17.0066 1.50492 16.7863 0.678291 16.7863 0.285439C16.7863 -0.0992281 16.6723 -0.0910429 16.3684 0.285439ZM19.8942 15.001C19.8942 15.3366 19.8333 15.9503 19.7573 16.3677C19.4989 17.7019 18.9975 18.6758 18.1085 19.5843C17.1435 20.5582 16.4976 20.9265 14.2789 21.7531C12.3792 22.4651 11.2547 23.1281 10.2593 24.1266C9.71218 24.6749 9.71218 24.6668 10.3428 23.6601C10.9279 22.7353 11.2547 22.3506 12.0145 21.6549C12.972 20.7874 13.6937 20.2963 15.2515 19.4452C16.8851 18.553 17.4473 18.1439 18.192 17.3253C18.9823 16.4497 19.4838 15.4675 19.6889 14.3872C19.7726 13.937 19.7877 13.9206 19.8333 14.1416C19.8637 14.2726 19.8865 14.6654 19.8942 15.001Z" fill="#FC896D"/>
<path d="M15.0932 13.001C14.7507 13.4975 13.9008 14.3308 13.2423 14.8192C11.9905 15.7346 10.7706 16.2697 8.29436 16.9954C5.35778 17.8426 4.37642 18.3263 2.90537 19.6558C1.10106 21.277 -0.0323287 23.6033 0.000702981 25.5952C0.0219423 26.6205 0.0554693 26.6575 0.316322 25.9036C0.904495 24.2429 1.74865 23.0397 3.23292 21.7396C3.93037 21.1311 6.05419 20.0526 7.57304 19.5255C9.46041 18.8791 10.171 18.5819 11.1909 17.9962C13.1453 16.8786 14.2684 15.6575 15.0424 13.8092C15.3085 13.1798 15.4516 12.6145 15.3317 12.6859C15.3008 12.7111 15.1937 12.8487 15.0932 13.001Z" fill="#FC896D"/>
<path d="M3.25443 24.1337C2.10306 24.3555 1.2353 25.2153 0.926299 26.4325C0.799306 26.9302 0.799306 27.7358 0.926299 28.2201C1.248 29.4463 2.17078 30.3785 3.23327 30.5596C3.67349 30.6365 4.3423 30.5958 4.72326 30.469C5.50213 30.2111 6.18364 29.5685 6.56884 28.7314C6.79742 28.229 6.87784 27.8128 6.85245 27.2154C6.81436 26.3601 6.51382 25.6586 5.91273 25.0116C5.54447 24.6179 5.10001 24.3419 4.61744 24.197C4.33806 24.1156 3.5338 24.0794 3.25443 24.1337ZM4.07139 25.3555C4.63437 25.4686 5.09577 25.8442 5.34551 26.3872C5.48097 26.6769 5.48521 26.7131 5.48521 27.2109C5.48521 27.7041 5.47674 27.7493 5.34974 28.039C4.79946 29.2744 3.36872 29.5866 2.45016 28.6681C1.9422 28.1611 1.74749 27.401 1.94644 26.7176C2.10306 26.1746 2.42053 25.7809 2.90309 25.5365C3.30522 25.3329 3.67349 25.2741 4.07139 25.3555Z" fill="#FC896D"/>
</svg>
